<svg width="20" height="24" viewBox="0 0 20 24" fill="none" xmlns="http://www.w3.org/2000/svg">
<g id="Apple">
<path id="Vector" d="M19.5808 18.4199C19.2218 19.2457 18.7967 20.0058 18.3043 20.7047C17.633 21.6574 17.0834 22.3169 16.6598 22.6831C16.0032 23.2842 15.2997 23.592 14.5464 23.6095C14.0056 23.6095 13.3534 23.4563 12.5942 23.1456C11.8325 22.8363 11.1325 22.6831 10.4925 22.6831C9.82119 22.6831 9.10128 22.8363 8.33123 23.1456C7.56002 23.4563 6.93874 23.6183 6.46373 23.6343C5.74132 23.665 5.02125 23.3484 4.30251 22.6831C3.84376 22.2848 3.26997 21.602 2.58259 20.6346C1.84508 19.6017 1.23875 18.4039 0.76374 17.0382C0.25502 15.5632 0 14.1348 0 12.752C0 11.168 0.343837 9.80179 1.03254 8.65692C1.57379 7.73732 2.29386 7.01191 3.19508 6.47938C4.09629 5.94685 5.07006 5.67548 6.11872 5.65811C6.69251 5.65811 7.44497 5.8348 8.38004 6.18204C9.31247 6.53044 9.91118 6.70713 10.1737 6.70713C10.3699 6.70713 11.035 6.50053 12.1625 6.08866C13.2288 5.7067 14.1287 5.54854 14.8659 5.61084C16.8636 5.77133 18.3644 6.55525 19.3625 7.96755C17.5758 9.04516 16.6921 10.5545 16.7097 12.4907C16.7258 13.9989 17.2754 15.2539 18.3556 16.2504C18.8451 16.7129 19.3918 17.0703 20 17.3242C19.8681 17.705 19.7289 18.0697 19.5808 18.4199ZM14.9993 0.472862C14.9993 1.65495 14.5654 2.75866 13.7007 3.78025C12.6572 4.99471 11.395 5.69649 10.0262 5.58575C10.0088 5.44393 9.99868 5.29468 9.99868 5.13784C9.99868 4.00303 10.4949 2.78857 11.3762 1.79558C11.8162 1.29281 12.3758 0.87477 13.0544 0.541288C13.7315 0.212781 14.372 0.0311104 14.9744 0C14.9919 0.158027 14.9993 0.316063 14.9993 0.472847V0.472862Z" fill="black"/>
</g>
</svg>
