<svg width="26" height="26" viewBox="0 0 26 26" fill="none" xmlns="http://www.w3.org/2000/svg">
<g id="Group 4">
<path id="Vector" d="M6.4217 15.9411L5.55589 19.1733L2.39135 19.2402C1.44561 17.4861 0.90918 15.4791 0.90918 13.3464C0.90918 11.2841 1.41073 9.33929 2.29977 7.62685H2.30045L5.11778 8.14336L6.35194 10.9438C6.09363 11.6968 5.95284 12.5052 5.95284 13.3464C5.95294 14.2594 6.11831 15.1341 6.4217 15.9411Z" fill="#FBBB00"/>
<path id="Vector_2" d="M25.5646 11.0229C25.7075 11.7752 25.7819 12.5521 25.7819 13.3462C25.7819 14.2366 25.6883 15.1051 25.51 15.9429C24.9046 18.7938 23.3226 21.2832 21.1311 23.0449L21.1305 23.0442L17.5819 22.8631L17.0797 19.728C18.5338 18.8752 19.6702 17.5406 20.2688 15.9429H13.6185V11.0229H20.3658H25.5646Z" fill="#518EF8"/>
<path id="Vector_3" d="M21.1325 23.0438L21.1332 23.0445C19.0019 24.7576 16.2945 25.7826 13.3472 25.7826C8.61099 25.7826 4.49319 23.1354 2.39258 19.2396L6.42293 15.9405C7.47321 18.7435 10.1772 20.7389 13.3472 20.7389C14.7098 20.7389 15.9863 20.3706 17.0817 19.7275L21.1325 23.0438Z" fill="#28B446"/>
<path id="Vector_4" d="M21.2834 3.77237L17.2544 7.07085C16.1208 6.36224 14.7807 5.95289 13.3451 5.95289C10.1033 5.95289 7.34871 8.0398 6.35104 10.9434L2.29951 7.62642H2.29883C4.36868 3.63571 8.53842 0.90918 13.3451 0.90918C16.3627 0.90918 19.1295 1.98409 21.2834 3.77237Z" fill="#F14336"/>
</g>
</svg>
